<svg xmlns="http://www.w3.org/2000/svg" width="28.198" height="27.493" viewBox="0 0 28.198 27.493">
  <path id="Icon_awesome-github" data-name="Icon awesome-github" d="M9.431,22.7c0,.114-.131.2-.3.2-.188.017-.318-.074-.318-.2,0-.114.131-.2.3-.2C9.284,22.478,9.431,22.569,9.431,22.7Zm-1.768-.256c-.04.114.074.244.244.279a.267.267,0,0,0,.352-.114c.034-.114-.074-.244-.244-.3A.292.292,0,0,0,7.663,22.444Zm2.513-.1c-.165.04-.279.148-.262.279.017.114.165.188.335.148s.279-.148.262-.262S10.341,22.331,10.176,22.348ZM13.917.563A13.632,13.632,0,0,0,0,14.434a14.253,14.253,0,0,0,9.636,13.6c.728.131.984-.318.984-.688,0-.352-.017-2.3-.017-3.491,0,0-3.98.853-4.815-1.694,0,0-.648-1.654-1.58-2.081,0,0-1.3-.893.091-.875a3,3,0,0,1,2.194,1.467,3.005,3.005,0,0,0,4.144,1.188,3.16,3.16,0,0,1,.91-1.916c-3.178-.352-6.384-.813-6.384-6.282A4.309,4.309,0,0,1,6.5,10.312a5.371,5.371,0,0,1,.148-3.86c1.188-.37,3.923,1.535,3.923,1.535a13.43,13.43,0,0,1,7.14,0s2.735-1.91,3.923-1.535a5.369,5.369,0,0,1,.148,3.86,4.419,4.419,0,0,1,1.467,3.348c0,5.486-3.348,5.924-6.526,6.282a3.362,3.362,0,0,1,.966,2.638c0,1.916-.017,4.287-.017,4.753,0,.37.262.819.984.688A14.122,14.122,0,0,0,28.2,14.434,13.94,13.94,0,0,0,13.917.563ZM5.526,20.17c-.074.057-.057.188.04.3.091.091.222.131.3.057.074-.057.057-.188-.04-.3C5.731,20.136,5.6,20.1,5.526,20.17Zm-.614-.46c-.04.074.017.165.131.222a.169.169,0,0,0,.244-.04c.04-.074-.017-.165-.131-.222C5.043,19.636,4.952,19.653,4.912,19.71Zm1.842,2.024c-.091.074-.057.244.074.352.131.131.3.148.37.057.074-.074.04-.244-.074-.352C7,21.66,6.828,21.643,6.754,21.734ZM6.106,20.9c-.091.057-.091.2,0,.335s.244.188.318.131a.259.259,0,0,0,0-.352C6.345,20.881,6.2,20.824,6.106,20.9Z" transform="translate(0 -0.563)"/>
</svg>
