<svg xmlns="http://www.w3.org/2000/svg" width="19.685" height="19.193" viewBox="0 0 19.685 19.193">
  <path id="Icon_awesome-github" data-name="Icon awesome-github" d="M6.584,16.017c0,.079-.091.143-.206.143-.131.012-.222-.052-.222-.143s.091-.143.206-.143S6.584,15.925,6.584,16.017ZM5.35,15.838c-.028.079.052.171.171.194a.186.186,0,0,0,.246-.079c.024-.079-.052-.171-.171-.206A.2.2,0,0,0,5.35,15.838ZM7.1,15.771c-.115.028-.194.1-.183.194s.115.131.234.1.194-.1.183-.183S7.219,15.759,7.1,15.771ZM9.715.563A9.517,9.517,0,0,0,0,10.246a9.95,9.95,0,0,0,6.727,9.493c.508.091.687-.222.687-.48s-.012-1.6-.012-2.437c0,0-2.778.6-3.361-1.183,0,0-.452-1.155-1.1-1.453,0,0-.909-.623.063-.611A2.1,2.1,0,0,1,4.532,14.6a2.1,2.1,0,0,0,2.893.829,2.206,2.206,0,0,1,.635-1.337C5.842,13.846,3.6,13.524,3.6,9.706A3.008,3.008,0,0,1,4.54,7.369a3.75,3.75,0,0,1,.1-2.695c.829-.258,2.738,1.072,2.738,1.072a9.376,9.376,0,0,1,4.985,0S14.275,4.412,15.1,4.674a3.748,3.748,0,0,1,.1,2.695,3.085,3.085,0,0,1,1.024,2.338c0,3.83-2.338,4.135-4.556,4.385a2.347,2.347,0,0,1,.675,1.841c0,1.337-.012,2.992-.012,3.318,0,.258.183.571.687.48a9.858,9.858,0,0,0,6.659-9.485A9.731,9.731,0,0,0,9.715.563ZM3.858,14.251c-.052.04-.04.131.028.206s.155.091.206.04.04-.131-.028-.206S3.909,14.2,3.858,14.251Zm-.429-.321c-.028.052.012.115.091.155a.118.118,0,0,0,.171-.028c.028-.052-.012-.115-.091-.155C3.52,13.877,3.457,13.889,3.429,13.929Zm1.286,1.413c-.063.052-.04.171.052.246.091.091.206.1.258.04s.028-.171-.052-.246C4.885,15.29,4.766,15.278,4.715,15.342Zm-.452-.583c-.063.04-.063.143,0,.234s.171.131.222.091a.181.181,0,0,0,0-.246C4.429,14.747,4.326,14.707,4.262,14.759Z" transform="translate(0 -0.563)" fill="#fff"/>
</svg>
