<svg xmlns="http://www.w3.org/2000/svg" width="37.981" height="35.653" viewBox="0 0 37.981 35.653">
  <g id="Groupe_80" data-name="Groupe 80" transform="translate(-409.163 -2762.261)">
    <g id="Rectangle_42" data-name="Rectangle 42" transform="matrix(0.588, 0.809, -0.809, 0.588, 432.624, 2762.261)" fill="none" stroke="#e55b4b" stroke-width="2.5">
      <path d="M3,0H20a3,3,0,0,1,3,3V21a8,8,0,0,1-8,8H8a8,8,0,0,1-8-8V3A3,3,0,0,1,3,0Z" stroke="none"/>
      <path d="M3,1.25H20A1.75,1.75,0,0,1,21.75,3V21A6.75,6.75,0,0,1,15,27.75H8A6.75,6.75,0,0,1,1.25,21V3A1.75,1.75,0,0,1,3,1.25Z" fill="none"/>
    </g>
    <path id="Tracé_29" data-name="Tracé 29" d="M8337.205,4874.069l26.91,1.545-16.97,12.216-5.766-3.3-4.175-8.04Z" transform="translate(-7923 -2093)" fill="#e16753"/>
    <path id="Icon_metro-water" data-name="Icon metro-water" d="M6.153,1.615C5.759,4.788,3.746,5.352,3.746,7.559a2.5,2.5,0,0,0,4.994,0c0-2.206-2.013-2.771-2.407-5.945a.093.093,0,0,0-.18,0Z" transform="translate(438.403 2786.406)" fill="#e55b4b" opacity="0.498"/>
  </g>
</svg>
