<svg xmlns="http://www.w3.org/2000/svg" width="36.495" height="32.669" viewBox="0 0 36.495 32.669">
  <g id="Groupe_82" data-name="Groupe 82" transform="translate(-1271 -2572.001)">
    <g id="Soustraction_2" data-name="Soustraction 2" transform="translate(9194 4665)" fill="none">
      <path d="M-7901-2064h-17a5.006,5.006,0,0,1-5-5v-19a5.006,5.006,0,0,1,5-5h23a5.006,5.006,0,0,1,5,5v13h-3v-13a2,2,0,0,0-2-2h-23a2,2,0,0,0-2,2v19a2,2,0,0,0,2,2h17v3Z" stroke="none"/>
      <path d="M -7900.9990234375 -2064.00048828125 L -7918 -2064.00048828125 C -7920.75732421875 -2064.00048828125 -7923.0009765625 -2066.242919921875 -7923.0009765625 -2068.999267578125 L -7923.0009765625 -2088.000732421875 C -7923.0009765625 -2090.757080078125 -7920.75732421875 -2092.99951171875 -7918 -2092.99951171875 L -7895 -2092.99951171875 C -7892.24267578125 -2092.99951171875 -7889.9990234375 -2090.757080078125 -7889.9990234375 -2088.000732421875 L -7889.9990234375 -2075.00048828125 L -7892.99951171875 -2075.00048828125 L -7892.99951171875 -2088.000732421875 C -7892.99951171875 -2089.103759765625 -7893.89697265625 -2090.0009765625 -7895 -2090.0009765625 L -7918 -2090.0009765625 C -7919.10302734375 -2090.0009765625 -7920.00048828125 -2089.103759765625 -7920.00048828125 -2088.000732421875 L -7920.00048828125 -2068.999267578125 C -7920.00048828125 -2067.896240234375 -7919.10302734375 -2066.9990234375 -7918 -2066.9990234375 L -7900.9990234375 -2066.9990234375 L -7900.9990234375 -2064.00048828125 Z" stroke="none" fill="#111110"/>
    </g>
    <g id="Icon_feather-mouse-pointer" data-name="Icon feather-mouse-pointer" transform="translate(1292.161 2589.337)" opacity="0.5">
      <path id="Tracé_30" data-name="Tracé 30" d="M4.5,4.5,8.8,14.833l1.528-4.5,4.5-1.528Z" transform="translate(0 0)" fill="none" stroke="#000" stroke-linecap="round" stroke-linejoin="round" stroke-width="1"/>
      <path id="Tracé_31" data-name="Tracé 31" d="M19.5,19.5l3.653,3.653" transform="translate(-8.911 -8.911)" fill="none" stroke="#000" stroke-linecap="round" stroke-linejoin="round" stroke-width="1"/>
    </g>
  </g>
</svg>
