<svg xmlns="http://www.w3.org/2000/svg" width="26.351" height="26.345" viewBox="0 0 26.351 26.345">
  <path id="Icon_awesome-instagram" data-name="Icon awesome-instagram" d="M13.173,8.656a6.754,6.754,0,1,0,6.754,6.754A6.744,6.744,0,0,0,13.173,8.656Zm0,11.146a4.391,4.391,0,1,1,4.391-4.391A4.4,4.4,0,0,1,13.173,19.8ZM21.779,8.379A1.575,1.575,0,1,1,20.2,6.8,1.572,1.572,0,0,1,21.779,8.379Zm4.474,1.6a7.8,7.8,0,0,0-2.128-5.52A7.848,7.848,0,0,0,18.6,2.33c-2.175-.123-8.694-.123-10.869,0a7.836,7.836,0,0,0-5.52,2.122A7.822,7.822,0,0,0,.087,9.972c-.123,2.175-.123,8.694,0,10.869a7.8,7.8,0,0,0,2.128,5.52,7.858,7.858,0,0,0,5.52,2.128c2.175.123,8.694.123,10.869,0a7.8,7.8,0,0,0,5.52-2.128,7.848,7.848,0,0,0,2.128-5.52c.123-2.175.123-8.689,0-10.864Zm-2.81,13.2a4.446,4.446,0,0,1-2.5,2.5c-1.734.688-5.849.529-7.766.529s-6.037.153-7.766-.529a4.446,4.446,0,0,1-2.5-2.5c-.688-1.734-.529-5.849-.529-7.766S2.221,9.373,2.9,7.645a4.446,4.446,0,0,1,2.5-2.5c1.734-.688,5.849-.529,7.766-.529s6.037-.153,7.766.529a4.446,4.446,0,0,1,2.5,2.5c.688,1.734.529,5.849.529,7.766S24.131,21.447,23.443,23.176Z" transform="translate(0.005 -2.238)"/>
</svg>
