<svg xmlns="http://www.w3.org/2000/svg" width="18.395" height="18.391" viewBox="0 0 18.395 18.391">
  <path id="Icon_awesome-instagram" data-name="Icon awesome-instagram" d="M9.194,6.718a4.715,4.715,0,1,0,4.715,4.715A4.708,4.708,0,0,0,9.194,6.718Zm0,7.781a3.066,3.066,0,1,1,3.066-3.066A3.071,3.071,0,0,1,9.194,14.5ZM15.2,6.525a1.1,1.1,0,1,1-1.1-1.1A1.1,1.1,0,0,1,15.2,6.525Zm3.123,1.116A5.443,5.443,0,0,0,16.84,3.788,5.478,5.478,0,0,0,12.986,2.3c-1.518-.086-6.069-.086-7.588,0A5.471,5.471,0,0,0,1.545,3.784,5.461,5.461,0,0,0,.059,7.637c-.086,1.518-.086,6.069,0,7.588a5.443,5.443,0,0,0,1.486,3.853A5.485,5.485,0,0,0,5.4,20.564c1.518.086,6.069.086,7.588,0a5.443,5.443,0,0,0,3.853-1.486,5.478,5.478,0,0,0,1.486-3.853c.086-1.518.086-6.065,0-7.584Zm-1.962,9.213A3.1,3.1,0,0,1,14.615,18.6c-1.211.48-4.083.369-5.421.369s-4.215.107-5.421-.369a3.1,3.1,0,0,1-1.748-1.748c-.48-1.211-.369-4.083-.369-5.421s-.107-4.215.369-5.421A3.1,3.1,0,0,1,3.773,4.264c1.211-.48,4.083-.369,5.421-.369s4.215-.107,5.421.369a3.1,3.1,0,0,1,1.748,1.748c.48,1.211.369,4.083.369,5.421S16.844,15.648,16.364,16.854Z" transform="translate(0.005 -2.238)" fill="#fff"/>
</svg>
