<svg xmlns="http://www.w3.org/2000/svg" width="16.859" height="16.858" viewBox="0 0 16.859 16.858">
  <path id="Icon_awesome-linkedin-in" data-name="Icon awesome-linkedin-in" d="M3.774,16.859H.278V5.6h3.5ZM2.024,4.068A2.034,2.034,0,1,1,4.048,2.025,2.041,2.041,0,0,1,2.024,4.068ZM16.855,16.859H13.367V11.38c0-1.306-.026-2.98-1.817-2.98-1.817,0-2.1,1.419-2.1,2.886v5.573H5.963V5.6H9.315V7.139h.049a3.673,3.673,0,0,1,3.307-1.818c3.537,0,4.188,2.329,4.188,5.355v6.183Z" transform="translate(0 -0.001)" fill="#fff"/>
</svg>
