<?xml version="1.0" encoding="UTF-8"?><svg id="Calque_2" xmlns="http://www.w3.org/2000/svg" viewBox="0 0 115.24 115.46"><defs><style>.cls-1{fill:#F1F3F7;}</style></defs><g id="Calque_1-2"><g><rect class="cls-1" y=".15" width="16.33" height="115.31"/><polygon class="cls-1" points="115.24 115.46 98.85 115.46 81.62 80.17 98 80.17 115.24 115.46"/><polygon class="cls-1" points="32.69 115.46 65.88 115.46 65.88 80.17 32.69 115.46"/><path class="cls-1" d="M115.23,31.82c0,17.28-14.46,31.38-32.44,31.82-.28,.02-.57,.02-.86,.02H32.78s0-16.34,0-16.34h49.16c8.92,0,16.18-6.96,16.18-15.5,0-8.53-7.27-15.48-16.18-15.48H32.78s0-16.34,0-16.34h49.16c18.37,0,33.3,14.28,33.3,31.82Z"/></g></g></svg>